<mxfile host="65bd71144e">
    <diagram id="_KOoHlTnzJw_V5ROn_v9" name="Page-1">
        <mxGraphModel dx="1588" dy="792" grid="0" gridSize="10" guides="0" tooltips="0" connect="0" arrows="0" fold="1" page="0" pageScale="1" pageWidth="850" pageHeight="1100" math="0" shadow="0">
            <root>
                <mxCell id="0"/>
                <mxCell id="1" parent="0"/>
                <mxCell id="12" value="users" style="swimlane;fontStyle=0;childLayout=stackLayout;horizontal=1;startSize=26;fillColor=none;horizontalStack=0;resizeParent=1;resizeParentMax=0;resizeLast=0;collapsible=1;marginBottom=0;html=1;labelBackgroundColor=none;" parent="1" vertex="1">
                    <mxGeometry x="-21" y="137" width="160" height="350" as="geometry"/>
                </mxCell>
                <mxCell id="14" value="id (bigunsignedint)&lt;br&gt;" style="text;strokeColor=none;fillColor=none;align=left;verticalAlign=top;spacingLeft=4;spacingRight=4;overflow=hidden;rotatable=0;points=[[0,0.5],[1,0.5]];portConstraint=eastwest;whiteSpace=wrap;html=1;fontColor=#66B2FF;" parent="12" vertex="1">
                    <mxGeometry y="26" width="160" height="26" as="geometry"/>
                </mxCell>
                <mxCell id="20" value="firstname (varchar)" style="text;strokeColor=none;fillColor=none;align=left;verticalAlign=top;spacingLeft=4;spacingRight=4;overflow=hidden;rotatable=0;points=[[0,0.5],[1,0.5]];portConstraint=eastwest;whiteSpace=wrap;html=1;" parent="12" vertex="1">
                    <mxGeometry y="52" width="160" height="26" as="geometry"/>
                </mxCell>
                <mxCell id="15" value="lastname (varchar)" style="text;strokeColor=none;fillColor=none;align=left;verticalAlign=top;spacingLeft=4;spacingRight=4;overflow=hidden;rotatable=0;points=[[0,0.5],[1,0.5]];portConstraint=eastwest;whiteSpace=wrap;html=1;" parent="12" vertex="1">
                    <mxGeometry y="78" width="160" height="26" as="geometry"/>
                </mxCell>
                <mxCell id="13" value="username (varchar)" style="text;strokeColor=none;fillColor=none;align=left;verticalAlign=top;spacingLeft=4;spacingRight=4;overflow=hidden;rotatable=0;points=[[0,0.5],[1,0.5]];portConstraint=eastwest;whiteSpace=wrap;html=1;" parent="12" vertex="1">
                    <mxGeometry y="104" width="160" height="26" as="geometry"/>
                </mxCell>
                <mxCell id="16" value="password (varchar)" style="text;strokeColor=none;fillColor=none;align=left;verticalAlign=top;spacingLeft=4;spacingRight=4;overflow=hidden;rotatable=0;points=[[0,0.5],[1,0.5]];portConstraint=eastwest;whiteSpace=wrap;html=1;" parent="12" vertex="1">
                    <mxGeometry y="130" width="160" height="26" as="geometry"/>
                </mxCell>
                <mxCell id="17" value="email (varchar)" style="text;strokeColor=none;fillColor=none;align=left;verticalAlign=top;spacingLeft=4;spacingRight=4;overflow=hidden;rotatable=0;points=[[0,0.5],[1,0.5]];portConstraint=eastwest;whiteSpace=wrap;html=1;" parent="12" vertex="1">
                    <mxGeometry y="156" width="160" height="26" as="geometry"/>
                </mxCell>
                <mxCell id="18" value="phone (varchar)" style="text;strokeColor=none;fillColor=none;align=left;verticalAlign=top;spacingLeft=4;spacingRight=4;overflow=hidden;rotatable=0;points=[[0,0.5],[1,0.5]];portConstraint=eastwest;whiteSpace=wrap;html=1;" parent="12" vertex="1">
                    <mxGeometry y="182" width="160" height="26" as="geometry"/>
                </mxCell>
                <mxCell id="19" value="gender (varchar)" style="text;strokeColor=none;fillColor=none;align=left;verticalAlign=top;spacingLeft=4;spacingRight=4;overflow=hidden;rotatable=0;points=[[0,0.5],[1,0.5]];portConstraint=eastwest;whiteSpace=wrap;html=1;" parent="12" vertex="1">
                    <mxGeometry y="208" width="160" height="26" as="geometry"/>
                </mxCell>
                <mxCell id="21" value="role (varchar)" style="text;strokeColor=none;fillColor=none;align=left;verticalAlign=top;spacingLeft=4;spacingRight=4;overflow=hidden;rotatable=0;points=[[0,0.5],[1,0.5]];portConstraint=eastwest;whiteSpace=wrap;html=1;" parent="12" vertex="1">
                    <mxGeometry y="234" width="160" height="26" as="geometry"/>
                </mxCell>
                <mxCell id="52" value="&lt;pre style=&quot;margin-top: 0px; margin-bottom: calc(1.5em); padding: var(--su12); border: 0px; font-variant-numeric: inherit; font-variant-east-asian: inherit; font-stretch: inherit; line-height: var(--lh-md); font-family: var(--ff-mono); font-optical-sizing: inherit; font-kerning: inherit; font-feature-settings: inherit; font-variation-settings: inherit; vertical-align: baseline; box-sizing: inherit; width: auto; max-height: 600px; overflow: auto; border-radius: var(--br-md); --_cb-line-numbers-bg: var(--black-050); overflow-wrap: normal;&quot; class=&quot;lang-php s-code-block&quot;&gt;&lt;font color=&quot;#d7ba7d&quot;&gt;&lt;span style=&quot;font-size: 13px;&quot;&gt;timestamp (date)&lt;/span&gt;&lt;/font&gt;&lt;/pre&gt;" style="text;strokeColor=none;fillColor=none;align=left;verticalAlign=top;spacingLeft=4;spacingRight=4;overflow=hidden;rotatable=0;points=[[0,0.5],[1,0.5]];portConstraint=eastwest;whiteSpace=wrap;html=1;labelBackgroundColor=default;" parent="12" vertex="1">
                    <mxGeometry y="260" width="160" height="26" as="geometry"/>
                </mxCell>
                <mxCell id="60" value="&lt;font color=&quot;#33ff33&quot;&gt;login&lt;br&gt;register&lt;br&gt;CRUD&lt;br&gt;&lt;/font&gt;" style="rounded=0;whiteSpace=wrap;html=1;labelBackgroundColor=none;fontColor=#FF3333;" parent="12" vertex="1">
                    <mxGeometry y="286" width="160" height="64" as="geometry"/>
                </mxCell>
                <mxCell id="22" value="category" style="swimlane;fontStyle=0;childLayout=stackLayout;horizontal=1;startSize=30;horizontalStack=0;resizeParent=1;resizeParentMax=0;resizeLast=0;collapsible=1;marginBottom=0;whiteSpace=wrap;html=1;" parent="1" vertex="1">
                    <mxGeometry x="716" y="147" width="160" height="210" as="geometry"/>
                </mxCell>
                <mxCell id="23" value="&lt;font color=&quot;#66b2ff&quot;&gt;id (bigunsignedint)&lt;/font&gt;" style="text;strokeColor=none;fillColor=none;align=left;verticalAlign=middle;spacingLeft=4;spacingRight=4;overflow=hidden;points=[[0,0.5],[1,0.5]];portConstraint=eastwest;rotatable=0;whiteSpace=wrap;html=1;" parent="22" vertex="1">
                    <mxGeometry y="30" width="160" height="30" as="geometry"/>
                </mxCell>
                <mxCell id="24" value="lib (varchar)" style="text;strokeColor=none;fillColor=none;align=left;verticalAlign=middle;spacingLeft=4;spacingRight=4;overflow=hidden;points=[[0,0.5],[1,0.5]];portConstraint=eastwest;rotatable=0;whiteSpace=wrap;html=1;" parent="22" vertex="1">
                    <mxGeometry y="60" width="160" height="30" as="geometry"/>
                </mxCell>
                <mxCell id="25" value="description (text)" style="text;strokeColor=none;fillColor=none;align=left;verticalAlign=middle;spacingLeft=4;spacingRight=4;overflow=hidden;points=[[0,0.5],[1,0.5]];portConstraint=eastwest;rotatable=0;whiteSpace=wrap;html=1;" parent="22" vertex="1">
                    <mxGeometry y="90" width="160" height="30" as="geometry"/>
                </mxCell>
                <mxCell id="56" value="&lt;pre style=&quot;border: 0px; background-color: var(--highlight-bg); margin-top: 0px; margin-bottom: calc(1.5em); padding: var(--su12); font-variant-numeric: inherit; font-variant-east-asian: inherit; font-stretch: inherit; line-height: var(--lh-md); font-family: var(--ff-mono); font-optical-sizing: inherit; font-kerning: inherit; font-feature-settings: inherit; font-variation-settings: inherit; vertical-align: baseline; box-sizing: inherit; width: auto; max-height: 600px; overflow: auto; border-radius: var(--br-md); --_cb-line-numbers-bg: var(--black-050); overflow-wrap: normal;&quot; class=&quot;lang-php s-code-block&quot;&gt;&lt;font color=&quot;#d7ba7d&quot;&gt;&lt;span style=&quot;font-size: 13px;&quot;&gt;timestamp (date)&lt;/span&gt;&lt;/font&gt;&lt;/pre&gt;" style="text;strokeColor=none;fillColor=none;align=left;verticalAlign=middle;spacingLeft=4;spacingRight=4;overflow=hidden;points=[[0,0.5],[1,0.5]];portConstraint=eastwest;rotatable=0;whiteSpace=wrap;html=1;" parent="22" vertex="1">
                    <mxGeometry y="120" width="160" height="30" as="geometry"/>
                </mxCell>
                <mxCell id="63" value="CRUD" style="rounded=0;whiteSpace=wrap;html=1;labelBackgroundColor=none;fontColor=#33FF33;" parent="22" vertex="1">
                    <mxGeometry y="150" width="160" height="60" as="geometry"/>
                </mxCell>
                <mxCell id="26" value="city" style="swimlane;fontStyle=0;childLayout=stackLayout;horizontal=1;startSize=30;horizontalStack=0;resizeParent=1;resizeParentMax=0;resizeLast=0;collapsible=1;marginBottom=0;whiteSpace=wrap;html=1;" parent="1" vertex="1">
                    <mxGeometry x="717" y="436" width="160" height="210" as="geometry"/>
                </mxCell>
                <mxCell id="27" value="id (bigunsignedint)" style="text;strokeColor=none;fillColor=none;align=left;verticalAlign=middle;spacingLeft=4;spacingRight=4;overflow=hidden;points=[[0,0.5],[1,0.5]];portConstraint=eastwest;rotatable=0;whiteSpace=wrap;html=1;fontColor=#66B2FF;" parent="26" vertex="1">
                    <mxGeometry y="30" width="160" height="30" as="geometry"/>
                </mxCell>
                <mxCell id="28" value="name (varchar)" style="text;strokeColor=none;fillColor=none;align=left;verticalAlign=middle;spacingLeft=4;spacingRight=4;overflow=hidden;points=[[0,0.5],[1,0.5]];portConstraint=eastwest;rotatable=0;whiteSpace=wrap;html=1;" parent="26" vertex="1">
                    <mxGeometry y="60" width="160" height="30" as="geometry"/>
                </mxCell>
                <mxCell id="29" value="zipcode (int)" style="text;strokeColor=none;fillColor=none;align=left;verticalAlign=middle;spacingLeft=4;spacingRight=4;overflow=hidden;points=[[0,0.5],[1,0.5]];portConstraint=eastwest;rotatable=0;whiteSpace=wrap;html=1;" parent="26" vertex="1">
                    <mxGeometry y="90" width="160" height="30" as="geometry"/>
                </mxCell>
                <mxCell id="55" value="&lt;pre style=&quot;border: 0px; background-color: var(--highlight-bg); margin-top: 0px; margin-bottom: calc(1.5em); padding: var(--su12); font-variant-numeric: inherit; font-variant-east-asian: inherit; font-stretch: inherit; line-height: var(--lh-md); font-family: var(--ff-mono); font-optical-sizing: inherit; font-kerning: inherit; font-feature-settings: inherit; font-variation-settings: inherit; vertical-align: baseline; box-sizing: inherit; width: auto; max-height: 600px; overflow: auto; border-radius: var(--br-md); --_cb-line-numbers-bg: var(--black-050); overflow-wrap: normal;&quot; class=&quot;lang-php s-code-block&quot;&gt;&lt;font color=&quot;#d7ba7d&quot;&gt;&lt;span style=&quot;font-size: 13px;&quot;&gt;timestamp (date)&lt;/span&gt;&lt;/font&gt;&lt;/pre&gt;" style="text;strokeColor=none;fillColor=none;align=left;verticalAlign=middle;spacingLeft=4;spacingRight=4;overflow=hidden;points=[[0,0.5],[1,0.5]];portConstraint=eastwest;rotatable=0;whiteSpace=wrap;html=1;" parent="26" vertex="1">
                    <mxGeometry y="120" width="160" height="30" as="geometry"/>
                </mxCell>
                <mxCell id="64" value="CRUD" style="rounded=0;whiteSpace=wrap;html=1;labelBackgroundColor=none;fontColor=#33FF33;" parent="26" vertex="1">
                    <mxGeometry y="150" width="160" height="60" as="geometry"/>
                </mxCell>
                <mxCell id="30" value="post" style="swimlane;fontStyle=0;childLayout=stackLayout;horizontal=1;startSize=30;horizontalStack=0;resizeParent=1;resizeParentMax=0;resizeLast=0;collapsible=1;marginBottom=0;whiteSpace=wrap;html=1;" parent="1" vertex="1">
                    <mxGeometry x="320" y="110" width="200" height="560" as="geometry"/>
                </mxCell>
                <mxCell id="31" value="id (bigunsignedint)" style="text;strokeColor=none;fillColor=none;align=left;verticalAlign=middle;spacingLeft=4;spacingRight=4;overflow=hidden;points=[[0,0.5],[1,0.5]];portConstraint=eastwest;rotatable=0;whiteSpace=wrap;html=1;fontColor=#66B2FF;" parent="30" vertex="1">
                    <mxGeometry y="30" width="200" height="30" as="geometry"/>
                </mxCell>
                <mxCell id="32" value="username (varchar)" style="text;strokeColor=none;fillColor=none;align=left;verticalAlign=middle;spacingLeft=4;spacingRight=4;overflow=hidden;points=[[0,0.5],[1,0.5]];portConstraint=eastwest;rotatable=0;whiteSpace=wrap;html=1;" parent="30" vertex="1">
                    <mxGeometry y="60" width="200" height="30" as="geometry"/>
                </mxCell>
                <mxCell id="33" value="email (varchar)" style="text;strokeColor=none;fillColor=none;align=left;verticalAlign=middle;spacingLeft=4;spacingRight=4;overflow=hidden;points=[[0,0.5],[1,0.5]];portConstraint=eastwest;rotatable=0;whiteSpace=wrap;html=1;" parent="30" vertex="1">
                    <mxGeometry y="90" width="200" height="30" as="geometry"/>
                </mxCell>
                <mxCell id="34" value="# Categorei (bigunsignedint)" style="text;strokeColor=none;fillColor=none;align=left;verticalAlign=middle;spacingLeft=4;spacingRight=4;overflow=hidden;points=[[0,0.5],[1,0.5]];portConstraint=eastwest;rotatable=0;whiteSpace=wrap;html=1;fontColor=#FF3333;" parent="30" vertex="1">
                    <mxGeometry y="120" width="200" height="30" as="geometry"/>
                </mxCell>
                <mxCell id="35" value="&lt;font color=&quot;#ff3333&quot;&gt;# city (bigunsignedint)&lt;/font&gt;" style="text;strokeColor=none;fillColor=none;align=left;verticalAlign=middle;spacingLeft=4;spacingRight=4;overflow=hidden;points=[[0,0.5],[1,0.5]];portConstraint=eastwest;rotatable=0;whiteSpace=wrap;html=1;" parent="30" vertex="1">
                    <mxGeometry y="150" width="200" height="30" as="geometry"/>
                </mxCell>
                <mxCell id="37" value="title (varchar)" style="text;strokeColor=none;fillColor=none;align=left;verticalAlign=middle;spacingLeft=4;spacingRight=4;overflow=hidden;points=[[0,0.5],[1,0.5]];portConstraint=eastwest;rotatable=0;whiteSpace=wrap;html=1;" parent="30" vertex="1">
                    <mxGeometry y="180" width="200" height="30" as="geometry"/>
                </mxCell>
                <mxCell id="40" value="description (text)" style="text;strokeColor=none;fillColor=none;align=left;verticalAlign=middle;spacingLeft=4;spacingRight=4;overflow=hidden;points=[[0,0.5],[1,0.5]];portConstraint=eastwest;rotatable=0;whiteSpace=wrap;html=1;" parent="30" vertex="1">
                    <mxGeometry y="210" width="200" height="30" as="geometry"/>
                </mxCell>
                <mxCell id="41" value="prix (float)" style="text;strokeColor=none;fillColor=none;align=left;verticalAlign=middle;spacingLeft=4;spacingRight=4;overflow=hidden;points=[[0,0.5],[1,0.5]];portConstraint=eastwest;rotatable=0;whiteSpace=wrap;html=1;" parent="30" vertex="1">
                    <mxGeometry y="240" width="200" height="30" as="geometry"/>
                </mxCell>
                <mxCell id="42" value="picture_1 (varchar)" style="text;strokeColor=none;fillColor=none;align=left;verticalAlign=middle;spacingLeft=4;spacingRight=4;overflow=hidden;points=[[0,0.5],[1,0.5]];portConstraint=eastwest;rotatable=0;whiteSpace=wrap;html=1;" parent="30" vertex="1">
                    <mxGeometry y="270" width="200" height="30" as="geometry"/>
                </mxCell>
                <mxCell id="43" value="picture_2 (varchar)" style="text;strokeColor=none;fillColor=none;align=left;verticalAlign=middle;spacingLeft=4;spacingRight=4;overflow=hidden;points=[[0,0.5],[1,0.5]];portConstraint=eastwest;rotatable=0;whiteSpace=wrap;html=1;" parent="30" vertex="1">
                    <mxGeometry y="300" width="200" height="30" as="geometry"/>
                </mxCell>
                <mxCell id="44" value="picture_3 (varchar)" style="text;strokeColor=none;fillColor=none;align=left;verticalAlign=middle;spacingLeft=4;spacingRight=4;overflow=hidden;points=[[0,0.5],[1,0.5]];portConstraint=eastwest;rotatable=0;whiteSpace=wrap;html=1;" parent="30" vertex="1">
                    <mxGeometry y="330" width="200" height="30" as="geometry"/>
                </mxCell>
                <mxCell id="45" value="picture_4 (varchar)" style="text;strokeColor=none;fillColor=none;align=left;verticalAlign=middle;spacingLeft=4;spacingRight=4;overflow=hidden;points=[[0,0.5],[1,0.5]];portConstraint=eastwest;rotatable=0;whiteSpace=wrap;html=1;" parent="30" vertex="1">
                    <mxGeometry y="360" width="200" height="30" as="geometry"/>
                </mxCell>
                <mxCell id="66" value="picture_5 (varchar)" style="text;strokeColor=none;fillColor=none;align=left;verticalAlign=middle;spacingLeft=4;spacingRight=4;overflow=hidden;points=[[0,0.5],[1,0.5]];portConstraint=eastwest;rotatable=0;whiteSpace=wrap;html=1;" parent="30" vertex="1">
                    <mxGeometry y="390" width="200" height="30" as="geometry"/>
                </mxCell>
                <mxCell id="54" value="status (bool)" style="text;strokeColor=none;fillColor=none;align=left;verticalAlign=middle;spacingLeft=4;spacingRight=4;overflow=hidden;points=[[0,0.5],[1,0.5]];portConstraint=eastwest;rotatable=0;whiteSpace=wrap;html=1;" parent="30" vertex="1">
                    <mxGeometry y="420" width="200" height="30" as="geometry"/>
                </mxCell>
                <mxCell id="46" value="&lt;pre style=&quot;border: 0px; background-color: var(--highlight-bg); margin-top: 0px; margin-bottom: calc(1.5em); padding: var(--su12); font-variant-numeric: inherit; font-variant-east-asian: inherit; font-stretch: inherit; line-height: var(--lh-md); font-family: var(--ff-mono); font-optical-sizing: inherit; font-kerning: inherit; font-feature-settings: inherit; font-variation-settings: inherit; vertical-align: baseline; box-sizing: inherit; width: auto; max-height: 600px; overflow: auto; border-radius: var(--br-md); --_cb-line-numbers-bg: var(--black-050); overflow-wrap: normal;&quot; class=&quot;lang-php s-code-block&quot;&gt;&lt;font color=&quot;#d7ba7d&quot;&gt;&lt;span style=&quot;font-size: 13px;&quot;&gt;timestamp (date)&lt;/span&gt;&lt;/font&gt;&lt;/pre&gt;" style="text;strokeColor=none;fillColor=none;align=left;verticalAlign=middle;spacingLeft=4;spacingRight=4;overflow=hidden;points=[[0,0.5],[1,0.5]];portConstraint=eastwest;rotatable=0;whiteSpace=wrap;html=1;" parent="30" vertex="1">
                    <mxGeometry y="450" width="200" height="30" as="geometry"/>
                </mxCell>
                <mxCell id="62" value="CRUD&lt;br&gt;search(title)&lt;br&gt;filtre( cat , city)&lt;br&gt;validation" style="rounded=0;whiteSpace=wrap;html=1;labelBackgroundColor=none;fontColor=#33FF33;" parent="30" vertex="1">
                    <mxGeometry y="480" width="200" height="80" as="geometry"/>
                </mxCell>
                <mxCell id="48" style="edgeStyle=none;html=1;exitX=0;exitY=0.5;exitDx=0;exitDy=0;entryX=1;entryY=0.5;entryDx=0;entryDy=0;" parent="1" source="23" target="34" edge="1">
                    <mxGeometry relative="1" as="geometry"/>
                </mxCell>
                <mxCell id="49" style="edgeStyle=none;html=1;exitX=0;exitY=0.5;exitDx=0;exitDy=0;entryX=1;entryY=0.5;entryDx=0;entryDy=0;" parent="1" source="27" target="35" edge="1">
                    <mxGeometry relative="1" as="geometry"/>
                </mxCell>
            </root>
        </mxGraphModel>
    </diagram>
</mxfile>